<svg xmlns="http://www.w3.org/2000/svg" width="128" height="128" viewBox="0 0 128 128"><path d="M100.77 64.77l-5.658-5.656c-4.07 4.072-8.834 7.243-14.188 9.455l-9.23-26.54C76.643 39.307 80 34.046 80 28c0-7.452-5.103-13.696-12-15.476V4h-8v8.524C53.103 14.304 48 20.548 48 28c0 6.047 3.357 11.308 8.307 14.028L30.11 117.342l3.78 1.314 14.32-41.172c5.12 1.627 10.452 2.452 15.79 2.452 5.337 0 10.673-.825 15.79-2.452l14.32 41.173 3.78-1.314L83.554 76.13c6.5-2.62 12.285-6.43 17.215-11.36zM64 24c2.21 0 4 1.79 4 4s-1.79 4-4 4-4-1.79-4-4 1.79-4 4-4zM50.838 69.928l9.198-26.443C61.306 43.81 62.63 44 64 44c1.37 0 2.694-.19 3.964-.515l9.198 26.443c-8.54 2.67-17.784 2.67-26.324 0z"/></svg>