<svg xmlns="http://www.w3.org/2000/svg" width="128" height="128" viewBox="0 0 128 128"><path d="M32.01 120c-7.505 0-14.556-3.01-19.85-8.48-10.846-11.203-10.846-29.434 0-40.64l50.32-51.977C69.285 11.873 78.345 8 87.99 8c9.644 0 18.704 3.872 25.51 10.903 13.966 14.428 13.967 37.902.003 52.328l-40.986 42.336-5.748-5.564 40.985-42.335c10.994-11.358 10.993-29.84-.002-41.2C102.467 19.007 95.448 16 87.99 16s-14.477 3.007-19.763 8.468l-50.32 51.975c-7.876 8.138-7.876 21.376 0 29.51 3.774 3.9 8.783 6.048 14.103 6.047 5.32 0 10.327-2.148 14.1-6.046l37.635-38.876c4.754-4.91 4.754-12.9 0-17.813-2.264-2.338-5.263-3.625-8.445-3.625-3.182 0-6.18 1.287-8.443 3.625L38.56 78.492l-5.748-5.565L61.108 43.7c3.783-3.907 8.823-6.06 14.19-6.06 5.37 0 10.41 2.152 14.192 6.06 7.726 7.98 7.727 20.963 0 28.942L51.86 111.518C46.565 116.988 39.518 120 32.01 120z"/></svg>