<svg xmlns="http://www.w3.org/2000/svg" width="128" height="128" viewBox="0 0 128 128"><path d="M124 60h-4.34C117.755 48.65 107.88 40 96 40c-5.424 0-10.43 1.805-14.45 4.844l-.214-.18C76.546 40.367 70.39 38 64 38s-12.545 2.367-17.293 6.627l-.257.217C42.43 41.804 37.424 40 32 40c-11.88 0-21.754 8.65-23.66 20H4v8h4.34C10.245 79.35 20.12 88 32 88c13.242 0 24-10.746 24-24 0-6.372-2.49-12.16-6.545-16.457C53.493 43.97 58.65 42 64 42c5.332 0 10.47 1.96 14.543 5.545C74.49 51.842 72 57.63 72 64c0 13.254 10.758 24 24 24 11.88 0 21.754-8.65 23.66-20H124v-8zM32 80c-8.822 0-16-7.178-16-16s7.178-16 16-16 16 7.178 16 16-7.178 16-16 16zm64 0c-8.822 0-16-7.178-16-16s7.178-16 16-16 16 7.178 16 16-7.178 16-16 16z"/></svg>