<svg xmlns="http://www.w3.org/2000/svg" width="128" height="128" viewBox="0 0 128 128"><path d="M44 112h40v12H44zM34.3 75.7c8.2 8.198 18.95 12.298 29.7 12.298 10.128 0 20.254-3.643 28.25-10.92l.035.035 2.828-2.828-.035-.035c15.002-16.48 14.545-42.023-1.38-57.95C85.5 8.103 74.75 4.003 64 4.003c-10.127 0-20.252 3.642-28.248 10.92l-.035-.035-2.828 2.828.036.035C17.92 34.232 18.377 59.775 34.3 75.7zM64 8c10.152 0 19.695 3.95 26.873 11.127 14.342 14.343 14.8 37.39 1.377 52.29L38.58 17.752C45.57 11.45 54.52 8.003 64 8.003zm25.42 66.245c-6.986 6.302-15.936 9.75-25.418 9.75-10.152 0-19.695-3.95-26.87-11.126-14.343-14.34-14.8-37.39-1.377-52.29L89.42 74.248z"/><path d="M105.012 4.988l-5.656 5.656C108.8 20.087 114 32.644 114 46s-5.2 25.913-14.646 35.355C89.914 90.8 77.36 96 64 96s-25.915-5.2-35.354-14.645l-5.658 5.656C33.938 97.968 48.504 104 64 104s30.062-6.033 41.012-16.988C115.967 76.06 122 61.494 122 46s-6.033-30.06-16.988-41.012z"/></svg>